<?xml version="1.0" encoding="utf-8"?>
<!DOCTYPE svg PUBLIC "-//W3C//DTD SVG 20010904//EN" "http://www.w3.org/TR/2001/REC-SVG-20010904/DTD/svg10.dtd">
<svg version="1.0" xmlns="http://www.w3.org/2000/svg" width="502pt" height="502pt" viewBox="0 0 502 502" style="" preserveAspectRatio="xMidYMid meet">
<g fill="#FFFFFFFF" stroke="#FFFFFFFF">
<path d="M 23.000 258.000 L 23.000 440.000 251.000 440.000 L 479.000 440.000 479.000 258.000 L 479.000 76.000 251.000 76.000 L 23.000 76.000 23.000 258.000 M 470.753 257.750 L 471.006 431.000 251.003 431.000 L 31.000 431.000 31.000 258.167 C 31.000 163.108 31.301 85.032 31.669 84.664 C 32.037 84.297 130.924 84.109 251.419 84.248 L 470.500 84.500 470.753 257.750 "/></g>
<g fill="#FFFFFFFF" stroke="#FFFFFFFF">
<path d="M 154.000 255.500 L 154.000 300.000 198.000 300.000 L 242.000 300.000 242.000 255.500 L 242.000 211.000 198.000 211.000 L 154.000 211.000 154.000 255.500 M 225.000 255.468 L 225.000 281.936 198.415 282.218 C 183.794 282.373 171.644 282.313 171.415 282.083 C 171.187 281.854 171.000 269.817 171.000 255.333 L 171.000 229.000 198.000 229.000 L 225.000 229.000 225.000 255.468 "/></g>
<g fill="#FFFFFFFF" stroke="#FFFFFFFF">
<path d="M 47.000 145.489 L 47.000 190.000 91.000 190.000 L 135.000 190.000 135.000 163.557 L 135.000 137.115 130.976 136.807 L 126.953 136.500 126.646 119.000 L 126.339 101.500 86.669 101.239 L 47.000 100.977 47.000 145.489 M 117.789 163.250 L 118.078 172.000 91.039 172.000 L 64.000 172.000 64.000 163.667 C 64.000 159.083 64.307 155.026 64.683 154.650 C 65.059 154.275 77.096 154.087 91.433 154.234 L 117.500 154.500 117.789 163.250 M 109.000 128.000 L 109.000 137.000 86.500 137.000 L 64.000 137.000 64.000 128.000 L 64.000 119.000 86.500 119.000 L 109.000 119.000 109.000 128.000 "/></g>
<g fill="#FFFFFFFF" stroke="#FFFFFFFF">
<path d="M 260.458 322.250 C 260.194 322.938 260.095 342.850 260.239 366.500 L 260.500 409.500 268.727 409.790 L 276.954 410.080 277.227 392.290 L 277.500 374.500 295.250 374.227 L 313.000 373.954 313.014 389.727 C 313.032 411.377 312.455 410.141 322.377 409.788 L 330.500 409.500 330.773 391.750 L 331.046 374.000 339.523 374.000 L 348.000 374.000 348.000 347.500 L 348.000 321.000 304.469 321.000 C 270.566 321.000 260.831 321.276 260.458 322.250 M 331.000 348.016 L 331.000 357.033 304.250 356.766 L 277.500 356.500 277.211 347.750 L 276.922 339.000 303.961 339.000 L 331.000 339.000 331.000 348.016 "/></g>
<g fill="#FFFFFFFF" stroke="#FFFFFFFF">
<path d="M 367.000 145.500 L 367.000 190.000 375.500 190.000 L 384.000 190.000 384.000 171.984 L 384.000 153.967 410.750 154.234 L 437.500 154.500 437.773 172.250 L 438.046 190.000 446.523 190.000 L 455.000 190.000 455.000 145.500 L 455.000 101.000 411.000 101.000 L 367.000 101.000 367.000 145.500 M 437.789 127.750 L 437.500 136.500 410.750 136.766 L 384.000 137.033 384.000 128.016 L 384.000 119.000 411.039 119.000 L 438.078 119.000 437.789 127.750 "/></g>
<g fill="#FFFFFFFF" stroke="#FFFFFFFF">
<path d="M 154.000 365.489 L 154.000 410.000 162.500 410.000 L 171.000 410.000 171.000 391.984 L 171.000 373.967 197.750 374.234 L 224.500 374.500 224.773 392.250 L 225.046 410.000 233.533 410.000 L 242.021 410.000 241.760 365.750 L 241.500 321.500 197.750 321.239 L 154.000 320.979 154.000 365.489 M 224.789 347.750 L 224.500 356.500 197.750 356.766 L 171.000 357.033 171.000 348.016 L 171.000 339.000 198.039 339.000 L 225.078 339.000 224.789 347.750 "/></g>
<g fill="#FFFFFFFF" stroke="#FFFFFFFF">
<path d="M 47.000 237.487 L 47.000 263.974 82.250 264.237 L 117.500 264.500 117.789 273.237 L 118.077 281.974 82.789 282.237 L 47.500 282.500 47.211 291.250 L 46.922 300.000 90.961 300.000 L 135.000 300.000 135.000 273.500 L 135.000 247.000 99.500 247.000 L 64.000 247.000 64.000 238.000 L 64.000 229.000 99.500 229.000 L 135.000 229.000 135.000 220.000 L 135.000 211.000 91.000 211.000 L 47.000 211.000 47.000 237.487 "/></g>
<g fill="#FFFFFFFF" stroke="#FFFFFFFF">
<path d="M 47.000 365.500 L 47.000 410.000 91.000 410.000 L 135.000 410.000 135.000 365.500 L 135.000 321.000 126.500 321.000 L 118.000 321.000 118.000 356.500 C 118.000 384.186 117.725 392.020 116.750 392.089 C 116.063 392.138 112.125 392.175 108.000 392.172 L 100.500 392.167 100.000 356.834 L 99.500 321.500 91.000 321.500 L 82.500 321.500 82.000 356.818 L 81.500 392.137 74.000 392.180 C 69.875 392.204 65.938 392.173 65.250 392.112 C 64.276 392.025 64.000 384.174 64.000 356.500 L 64.000 321.000 55.500 321.000 L 47.000 321.000 47.000 365.500 "/></g>
<g fill="#FFFFFFFF" stroke="#FFFFFFFF">
<path d="M 367.000 365.489 L 367.000 410.000 411.000 410.000 L 455.000 410.000 455.000 401.513 L 455.000 393.026 419.750 392.763 L 384.500 392.500 384.212 383.250 L 383.925 374.000 419.462 374.000 L 455.000 374.000 455.000 365.500 L 455.000 357.000 419.500 357.000 L 384.000 357.000 384.000 348.013 L 384.000 339.026 419.250 338.763 L 454.500 338.500 454.500 330.000 L 454.500 321.500 410.750 321.239 L 367.000 320.979 367.000 365.489 "/></g>
<g fill="#FFFFFFFF" stroke="#FFFFFFFF">
<path d="M 260.000 145.500 L 260.000 190.000 304.000 190.000 L 348.000 190.000 348.000 163.500 L 348.000 137.000 330.500 137.000 L 313.000 137.000 313.000 145.500 L 313.000 154.000 322.000 154.000 L 331.000 154.000 331.000 163.000 L 331.000 172.000 304.250 172.000 L 277.500 172.000 277.500 145.500 L 277.500 119.000 312.750 119.000 L 348.000 119.000 348.000 110.000 L 348.000 101.000 304.000 101.000 L 260.000 101.000 260.000 145.500 "/></g>
<g fill="#FFFFFFFF" stroke="#FFFFFFFF">
<path d="M 260.240 255.250 L 260.500 299.500 268.727 299.790 L 276.954 300.080 277.227 282.290 L 277.500 264.500 312.750 264.237 L 348.000 263.974 348.000 255.500 L 348.000 247.026 312.750 246.763 L 277.500 246.500 277.500 238.000 L 277.500 229.500 312.677 229.237 L 347.854 228.975 348.177 220.399 C 348.355 215.683 348.313 211.639 348.083 211.412 C 347.854 211.185 327.937 211.000 303.823 211.000 L 259.979 211.000 260.240 255.250 "/></g>
<g fill="#FFFFFFFF" stroke="#FFFFFFFF">
<path d="M 154.000 145.500 L 154.000 190.000 198.000 190.000 L 242.000 190.000 242.000 145.500 L 242.000 101.000 233.500 101.000 L 225.000 101.000 225.000 136.500 L 225.000 172.000 198.000 172.000 L 171.000 172.000 171.000 136.500 L 171.000 101.000 162.500 101.000 L 154.000 101.000 154.000 145.500 "/></g>
<g fill="#FFFFFFFF" stroke="#FFFFFFFF">
<path d="M 367.000 220.000 L 367.000 229.000 384.487 229.000 L 401.974 229.000 402.237 264.250 L 402.500 299.500 410.589 299.788 L 418.678 300.076 419.337 275.288 C 419.699 261.655 419.997 245.663 419.998 239.750 L 420.000 229.000 437.500 229.000 L 455.000 229.000 455.000 220.000 L 455.000 211.000 411.000 211.000 L 367.000 211.000 367.000 220.000 "/></g>
</svg>
