<?xml version="1.0" encoding="utf-8"?>
<!DOCTYPE svg PUBLIC "-//W3C//DTD SVG 20010904//EN" "http://www.w3.org/TR/2001/REC-SVG-20010904/DTD/svg10.dtd">
<svg version="1.0" xmlns="http://www.w3.org/2000/svg" width="502pt" height="502pt" viewBox="0 0 502 502" style="" preserveAspectRatio="xMidYMid meet">
<g fill="#FFFFFFFF" stroke="#FFFFFFFF">
<path d="M 71.583 61.909 C 70.633 62.958 68.479 64.387 66.796 65.084 L 63.738 66.351 64.366 76.926 C 64.711 82.742 65.027 164.225 65.067 258.000 C 65.108 351.775 65.383 429.514 65.680 430.753 L 66.218 433.005 251.359 432.753 L 436.500 432.500 436.754 322.554 C 436.918 251.964 436.659 212.259 436.032 211.632 C 435.292 210.892 417.062 210.050 400.750 210.002 C 400.338 210.001 400.000 176.250 400.000 135.000 L 400.000 60.000 236.655 60.000 C 77.187 60.000 73.269 60.045 71.583 61.909 M 363.762 321.250 L 363.500 359.500 251.000 359.500 L 138.500 359.500 138.238 321.250 L 137.976 283.000 251.000 283.000 L 364.024 283.000 363.762 321.250 M 326.191 172.672 C 325.939 200.035 325.539 209.930 324.675 210.172 C 324.029 210.352 281.763 210.378 230.750 210.230 L 138.000 209.960 138.000 171.985 L 138.000 134.010 231.250 133.755 C 292.418 133.588 324.850 133.844 325.516 134.500 C 326.180 135.154 326.414 148.371 326.191 172.672 "/></g>
</svg>
